<svg width="24" height="35" viewBox="0 0 24 35" fill="none" xmlns="http://www.w3.org/2000/svg">
<path d="M12.1 22.7382C18.4512 22.7382 23.6 17.6482 23.6 11.3691C23.6 5.09012 18.4512 0 12.1 0C5.7487 0 0.599976 5.09012 0.599976 11.3691C0.599976 17.6482 5.7487 22.7382 12.1 22.7382Z" fill="white"/>
<path d="M18.5569 23.8036C19.1192 23.5062 19.7666 23.9435 19.7666 24.5907V33.0738C19.7666 34.648 18.6932 35.4176 17.3643 34.7704L12.7984 32.549C12.4066 32.3741 11.7932 32.3741 11.4014 32.549L6.83545 34.7704C5.50656 35.4001 4.43323 34.6305 4.43323 33.0563L4.4673 24.5907C4.4673 23.9435 5.13175 23.5237 5.67693 23.8036C7.60212 24.8006 9.78286 25.3603 12.0999 25.3603C14.4169 25.3603 16.6147 24.8006 18.5569 23.8036Z" fill="white"/>
</svg>
