<svg width="11" height="19" viewBox="0 0 11 19" fill="none" xmlns="http://www.w3.org/2000/svg">
<path d="M9.17485 18.9999C8.94004 19.0006 8.70804 18.9559 8.49589 18.869C8.28374 18.7821 8.09684 18.6553 7.94891 18.4978L0.357546 10.3557C0.126375 10.1129 0 9.80834 0 9.49402C0 9.1797 0.126375 8.87513 0.357546 8.63231L8.2161 0.490225C8.48288 0.2131 8.86624 0.0388259 9.28184 0.00574221C9.69744 -0.0273414 10.1112 0.083475 10.4322 0.313813C10.7532 0.54415 10.955 0.875142 10.9933 1.23397C11.0317 1.5928 10.9033 1.95008 10.6365 2.2272L3.61099 9.5008L10.4008 16.7744C10.593 16.9736 10.7151 17.2161 10.7526 17.4734C10.7901 17.7306 10.7415 17.9917 10.6126 18.2258C10.4836 18.46 10.2797 18.6573 10.0249 18.7945C9.77007 18.9316 9.4751 19.0029 9.17485 18.9999Z" fill="black"/>
</svg>
