<svg width="32" height="32" viewBox="0 0 32 32" fill="none" xmlns="http://www.w3.org/2000/svg">
<path d="M4.05387 5.23077C3.48263 5.23077 2.9348 5.4577 2.53087 5.86161C2.12695 6.26554 1.90002 6.81337 1.90002 7.38462V27.8462C1.90002 28.4174 2.12695 28.9653 2.53087 29.3691C2.9348 29.773 3.48263 30 4.05387 30H27.7462C28.3174 30 28.8653 29.773 29.2692 29.3691C29.673 28.9653 29.9 28.4174 29.9 27.8462V7.38462C29.9 6.81337 29.673 6.26554 29.2692 5.86161C28.8653 5.4577 28.3174 5.23077 27.7462 5.23077H23.4385" stroke="white" stroke-width="2.29186" stroke-linecap="round" stroke-linejoin="round"/>
<path d="M8.36157 2V8.46154" stroke="white" stroke-width="2.29186" stroke-linecap="round" stroke-linejoin="round"/>
<path d="M23.4386 2V8.46154" stroke="white" stroke-width="2.29186" stroke-linecap="round" stroke-linejoin="round"/>
<path d="M8.36157 5.23077H19.1308" stroke="white" stroke-width="2.29186" stroke-linecap="round" stroke-linejoin="round"/>
<path d="M21.2847 18.1538H10.5155" stroke="white" stroke-width="2.29186" stroke-linecap="round" stroke-linejoin="round"/>
<path d="M15.9 12.7692V23.5385" stroke="white" stroke-width="2.29186" stroke-linecap="round" stroke-linejoin="round"/>
</svg>
