<svg width="15" height="12" viewBox="0 0 15 12" fill="none" xmlns="http://www.w3.org/2000/svg">
<path d="M7.71528 8.87474L7.71531 8.87477C8.27193 9.32091 8.46887 9.97875 8.61149 10.4551C8.61618 10.4708 8.62082 10.4863 8.62541 10.5016M7.71528 8.87474L15 6.51333M7.71528 8.87474C7.30437 8.54546 6.98457 8.17262 6.61312 7.73956C6.59391 7.71716 6.57456 7.6946 6.55505 7.67188C6.18219 7.23758 5.76369 6.75928 5.18752 6.29036V1.61561C5.7189 1.57378 6.33239 1.36071 6.74289 1.21461L6.5769 0.748223L6.74289 1.21461C7.67475 0.88295 8.75897 0.500399 10.078 0.5L7.71528 8.87474ZM8.62541 10.5016L8.14654 10.6454L8.62541 10.5016C8.62541 10.5016 8.62541 10.5016 8.62541 10.5016ZM8.62541 10.5016C8.69313 10.7271 8.77998 11.0129 8.90757 11.2422C9.04941 11.497 9.13704 11.5 9.14061 11.5C9.46389 11.5 9.88077 11.4537 10.2029 11.2616C10.4822 11.0951 10.75 10.7862 10.75 10.091C10.75 9.73226 10.6168 9.4406 10.419 9.12452C10.369 9.04474 10.3169 8.96625 10.2615 8.88319L10.2539 8.87168C10.202 8.79391 10.1468 8.71108 10.0945 8.62793C9.98559 8.45481 9.87184 8.25381 9.79918 8.02838L9.5886 7.375H10.2751H13.2553C14.0631 7.375 14.4976 6.85295 14.5 6.5104M14.5 6.5104L15 6.51333M14.5 6.5104C14.5 6.51031 14.5 6.51021 14.5 6.51012L15 6.51333M14.5 6.5104C14.5015 6.25342 14.3556 5.94178 14.1176 5.75028L14.1182 5.75074L14.4305 5.36027C14.7789 5.64033 15.0024 6.09291 15 6.51333M13.1173 1.02515C13.2309 1.15575 13.2811 1.31964 13.1964 1.59703L13.0997 1.91397L13.3538 2.12657C13.695 2.41187 13.8481 2.93268 13.6934 3.30189L13.5683 3.60045L13.7895 3.8368C14.1508 4.22289 14.1786 4.75684 13.9849 5.12466L13.7924 5.49013L14.1149 5.74816L14.1172 5.74999L13.4945 0.696961M13.1173 1.02515C13.1173 1.02515 13.1173 1.02515 13.1173 1.02516L13.4945 0.696961M13.1173 1.02515L13.4945 0.696961M13.1173 1.02515C12.9428 0.824645 12.5807 0.670519 12.001 0.585451C11.4414 0.503328 10.7946 0.5 10.1613 0.5L10.0781 0.5L10.078 0H10.1613C11.4145 0 12.8965 0.0096797 13.4945 0.696961M0.5 6.92708V1.32292C0.502873 1.31913 0.50837 1.31312 0.518286 1.30519C0.550845 1.27914 0.614532 1.25 0.703124 1.25H3.04687C3.13546 1.25 3.19915 1.27914 3.23171 1.30519C3.24163 1.31312 3.24712 1.31913 3.24999 1.32292V6.92708C3.24712 6.93087 3.24163 6.93688 3.23171 6.94481C3.19915 6.97086 3.13546 7 3.04687 7H2.27475C2.70026 6.86662 3.07812 6.52298 3.07812 6C3.07812 5.31484 2.42959 4.9375 1.875 4.9375C1.32041 4.9375 0.671873 5.31484 0.671873 6C0.671873 6.52298 1.04973 6.86662 1.47525 7H0.703124C0.614532 7 0.550845 6.97086 0.518286 6.94481C0.50837 6.93688 0.502873 6.93087 0.5 6.92708ZM3.25277 6.92243C3.25287 6.92244 3.25262 6.92317 3.25175 6.92457C3.25225 6.92311 3.25268 6.92242 3.25277 6.92243ZM3.25277 1.32757C3.25268 1.32759 3.25225 1.32689 3.25175 1.32543C3.25262 1.32683 3.25287 1.32755 3.25277 1.32757ZM0.497221 1.32757C0.497128 1.32755 0.497378 1.32683 0.498246 1.32543C0.497748 1.32689 0.497313 1.32758 0.497221 1.32757ZM0.498247 6.92457C0.497378 6.92317 0.497128 6.92245 0.497221 6.92243C0.497313 6.92241 0.497748 6.92311 0.498247 6.92457Z" fill="black" stroke="white"/>
</svg>
