<svg width="40" height="40" viewBox="0 0 40 40" fill="none" xmlns="http://www.w3.org/2000/svg">
<circle cx="20" cy="20" r="20" fill="#313131"/>
<path d="M20 24.4688C19.8333 24.4688 19.6771 24.4425 19.5312 24.39C19.3854 24.3383 19.25 24.25 19.125 24.125L14.625 19.625C14.3958 19.3958 14.2812 19.1042 14.2812 18.75C14.2812 18.3958 14.3958 18.1042 14.625 17.875C14.8542 17.6458 15.1508 17.5258 15.515 17.515C15.88 17.505 16.1771 17.6146 16.4062 17.8437L18.75 20.1875V11.25C18.75 10.8958 18.87 10.5988 19.11 10.3588C19.3492 10.1196 19.6458 10 20 10C20.3542 10 20.6513 10.1196 20.8913 10.3588C21.1304 10.5988 21.25 10.8958 21.25 11.25V20.1875L23.5938 17.8437C23.8229 17.6146 24.12 17.505 24.485 17.515C24.8492 17.5258 25.1458 17.6458 25.375 17.875C25.6042 18.1042 25.7188 18.3958 25.7188 18.75C25.7188 19.1042 25.6042 19.3958 25.375 19.625L20.875 24.125C20.75 24.25 20.6146 24.3383 20.4688 24.39C20.3229 24.4425 20.1667 24.4688 20 24.4688ZM12.5 30C11.8125 30 11.2242 29.7554 10.735 29.2663C10.245 28.7763 10 28.1875 10 27.5V25C10 24.6458 10.1196 24.3487 10.3588 24.1087C10.5988 23.8696 10.8958 23.75 11.25 23.75C11.6042 23.75 11.9012 23.8696 12.1412 24.1087C12.3804 24.3487 12.5 24.6458 12.5 25V27.5H27.5V25C27.5 24.6458 27.62 24.3487 27.86 24.1087C28.0992 23.8696 28.3958 23.75 28.75 23.75C29.1042 23.75 29.4008 23.8696 29.64 24.1087C29.88 24.3487 30 24.6458 30 25V27.5C30 28.1875 29.7554 28.7763 29.2663 29.2663C28.7763 29.7554 28.1875 30 27.5 30H12.5Z" fill="#C9C6C6"/>
</svg>
