<svg width="10" height="10" viewBox="0 0 10 10" fill="none" xmlns="http://www.w3.org/2000/svg">
<path d="M4.93499 6.72455L4.93421 6.72427C4.93398 6.72414 4.93369 6.72396 4.93333 6.72372C4.931 6.7222 4.92509 6.71798 4.91605 6.70895L2.66605 4.45895C2.6544 4.44729 2.64062 4.43302 2.64062 4.375C2.64062 4.31698 2.6544 4.30271 2.66605 4.29105C2.67905 4.27806 2.70045 4.25953 2.77171 4.2573C2.80861 4.25634 2.82664 4.2617 2.83275 4.26395C2.83758 4.26573 2.84216 4.26801 2.84957 4.27543L4.02145 5.4473L4.875 6.30086V5.09375V0.625C4.875 0.5741 4.88677 0.554713 4.90855 0.532928C4.92956 0.511921 4.94857 0.5 5 0.5C5.05096 0.5 5.07066 0.511734 5.09208 0.532935C5.11327 0.554351 5.125 0.574044 5.125 0.625V5.09375V6.30086L5.97855 5.4473L7.15043 4.27543C7.15784 4.26801 7.16242 4.26573 7.16725 4.26395C7.17336 4.2617 7.19139 4.25634 7.2283 4.2573C7.29955 4.25953 7.32095 4.27806 7.33395 4.29105C7.3456 4.30271 7.35938 4.31698 7.35938 4.375C7.35938 4.43302 7.3456 4.44729 7.33395 4.45895L5.08395 6.70895C5.07491 6.71798 5.069 6.7222 5.06667 6.72372C5.0663 6.72396 5.066 6.72415 5.06578 6.72428L5.06502 6.72456C5.05038 6.72982 5.02996 6.73438 5 6.73438C4.97004 6.73438 4.94962 6.72982 4.93499 6.72455ZM9.5 8.75C9.5 8.9601 9.43111 9.12765 9.27957 9.27957C9.12765 9.43111 8.9601 9.5 8.75 9.5H1.25C1.03979 9.5 0.872526 9.43104 0.721053 9.27957C0.568983 9.1275 0.5 8.95996 0.5 8.75V7.5C0.5 7.44904 0.511734 7.42934 0.532935 7.40792C0.554351 7.38673 0.574044 7.375 0.625 7.375C0.675957 7.375 0.695651 7.38673 0.717067 7.40793C0.738267 7.42935 0.75 7.44904 0.75 7.5V8.75V9.25H1.25H8.75H9.25V8.75V7.5C9.25 7.4491 9.26177 7.42971 9.28355 7.40793C9.30456 7.38692 9.32357 7.375 9.375 7.375C9.42643 7.375 9.44544 7.38692 9.46645 7.40793C9.48823 7.42971 9.5 7.4491 9.5 7.5V8.75Z" fill="black" stroke="#FFFDFD"/>
</svg>
