<svg width="30" height="30" viewBox="0 0 30 30" fill="none" xmlns="http://www.w3.org/2000/svg">
<path d="M14.9612 9.34927V15.127L17.8575 18.0159" stroke="white" stroke-width="2.22544" stroke-linecap="round" stroke-linejoin="round"/>
<path d="M2 13.6826C2.32452 10.5049 3.81059 7.5576 6.17469 5.403C8.53878 3.2484 11.6154 2.03733 14.8176 2.00085C18.0197 1.96437 21.1233 3.10503 23.5361 5.20521C25.9489 7.30539 27.5021 10.2181 27.8993 13.3875C28.2965 16.557 27.51 19.7614 25.6897 22.3894C23.8694 25.0173 21.1428 26.8849 18.0302 27.6357C14.9176 28.3865 11.6367 27.9681 8.81364 26.4602C5.99055 24.9524 3.82284 22.4606 2.72409 19.4604M2 26.6826V19.4604H9.24085" stroke="white" stroke-width="2.22544" stroke-linecap="round" stroke-linejoin="round"/>
</svg>
