<svg width="15" height="12" viewBox="0 0 15 12" fill="none" xmlns="http://www.w3.org/2000/svg">
<path d="M9.58862 4.625L9.7992 3.97162C9.87186 3.74619 9.98561 3.54519 10.0945 3.37207C10.1468 3.28893 10.202 3.20612 10.2539 3.12836L10.2616 3.1168C10.3169 3.03375 10.3691 2.95526 10.419 2.87548C10.6168 2.5594 10.75 2.26774 10.75 1.90903C10.75 1.21377 10.4822 0.904937 10.2029 0.738379C9.88079 0.54629 9.46391 0.5 9.14063 0.5C9.13705 0.5 9.04943 0.503016 8.90758 0.757851C8.77999 0.987051 8.69315 1.27288 8.6254 1.49835L9.58862 4.625ZM9.58862 4.625H10.2751M9.58862 4.625H10.2751M10.2751 4.625H13.2553C14.0631 4.625 14.4975 5.14705 14.5 5.4896C14.5015 5.74673 14.3555 6.05855 14.1173 6.25L14.1149 6.25186L13.7923 6.5099M10.2751 4.625L13.7923 6.5099M13.7923 6.5099L13.9849 6.87536M13.7923 6.5099L13.9849 6.87536M13.9849 6.87536C14.1787 7.24316 14.1509 7.7771 13.7895 8.16319L13.5683 8.39954M13.9849 6.87536L13.5683 8.39954M13.5683 8.39954L13.6934 8.6981M13.5683 8.39954L13.6934 8.6981M13.6934 8.6981C13.8481 9.06736 13.695 9.58813 13.3539 9.87342L13.0996 10.086M13.6934 8.6981L13.0996 10.086M13.0996 10.086L13.1964 10.403M13.0996 10.086L13.1964 10.403M13.1964 10.403C13.2811 10.6804 13.2309 10.8442 13.1173 10.9748L13.4945 11.303M13.1964 10.403L13.4945 11.303M13.4945 11.303L13.1173 10.9749C12.9428 11.1754 12.5807 11.3295 12.001 11.4145C11.4415 11.4967 10.7947 11.5 10.1614 11.5C10.1614 11.5 10.1614 11.5 10.1613 11.5L10.0781 11.5C8.759 11.4996 7.67477 11.117 6.74287 10.7854L6.57522 11.2564L6.74287 10.7854C6.33234 10.6393 5.71884 10.4262 5.1875 10.3844V5.70961C5.76367 5.2407 6.18217 4.7624 6.55503 4.3281C6.57454 4.30537 6.59389 4.28281 6.6131 4.26042C6.98456 3.82736 7.30436 3.45452 7.71526 3.12524L7.7153 3.12521M13.4945 11.303L7.7153 3.12521M7.7153 3.12521C8.272 2.67901 8.46893 2.02106 8.61154 1.54461M7.7153 3.12521L8.61154 1.54461M8.61154 1.54461C8.61621 1.52902 8.62082 1.51362 8.62538 1.49842L8.61154 1.54461ZM0.703125 5.75H3.04688C3.13547 5.75 3.19916 5.77914 3.23172 5.80519C3.24163 5.81312 3.24713 5.81913 3.25 5.82292V11.4271C3.24713 11.4309 3.24163 11.4369 3.23172 11.4448C3.19916 11.4709 3.13547 11.5 3.04688 11.5H2.27475C2.70027 11.3666 3.07813 11.023 3.07813 10.5C3.07813 9.81484 2.42959 9.4375 1.875 9.4375C1.32041 9.4375 0.671876 9.81484 0.671876 10.5C0.671876 11.023 1.04973 11.3666 1.47525 11.5H0.703125C0.614532 11.5 0.550845 11.4709 0.518286 11.4448C0.50837 11.4369 0.502873 11.4309 0.5 11.4271V5.82292C0.502873 5.81913 0.50837 5.81312 0.518286 5.80519C0.550845 5.77914 0.614532 5.75 0.703125 5.75ZM3.25278 5.82757C3.25268 5.82758 3.25225 5.82688 3.25176 5.82543C3.25263 5.82683 3.25288 5.82756 3.25278 5.82757ZM3.25278 11.4224C3.25288 11.4224 3.25263 11.4232 3.25176 11.4246C3.25225 11.4231 3.25268 11.4224 3.25278 11.4224ZM0.497221 11.4224C0.497313 11.4224 0.497748 11.4231 0.498247 11.4246C0.497378 11.4232 0.497129 11.4224 0.497221 11.4224ZM0.497221 5.82757C0.497128 5.82755 0.497377 5.82683 0.498246 5.82543C0.497747 5.82689 0.497313 5.82759 0.497221 5.82757Z" fill="black" stroke="white"/>
</svg>
