<svg width="27" height="20" viewBox="0 0 27 20" fill="none" xmlns="http://www.w3.org/2000/svg">
<path d="M24.3 0H2.7C1.215 0 0.0135 1.125 0.0135 2.5L0 17.5C0 18.875 1.215 20 2.7 20H24.3C25.785 20 27 18.875 27 17.5V2.5C27 1.125 25.785 0 24.3 0ZM24.3 4.3761C24.3 4.76223 24.0942 5.11909 23.76 5.3125L18.9095 8.11951C15.5631 10.0561 11.4369 10.0561 8.09051 8.11951L3.24 5.3125C2.90579 5.11909 2.7 4.76223 2.7 4.3761C2.7 3.54277 3.60253 3.0223 4.3238 3.4397L10.7976 7.18613C12.4693 8.15355 14.5307 8.15355 16.2024 7.18613L22.6762 3.4397C23.3975 3.0223 24.3 3.54277 24.3 4.3761Z" fill="#948989"/>
</svg>
