<svg width="28" height="28" viewBox="0 0 28 28" fill="none" xmlns="http://www.w3.org/2000/svg">
<path d="M14 15.75C18.3477 15.75 21.875 12.2227 21.875 7.875C21.875 3.52734 18.3477 0 14 0C9.65234 0 6.125 3.52734 6.125 7.875C6.125 12.2227 9.65234 15.75 14 15.75ZM21 17.5H17.9867C16.7727 18.0578 15.4219 18.375 14 18.375C12.5781 18.375 11.2328 18.0578 10.0133 17.5H7C3.13359 17.5 0 20.6336 0 24.5V25.375C0 26.8242 1.17578 28 2.625 28H25.375C26.8242 28 28 26.8242 28 25.375V24.5C28 20.6336 24.8664 17.5 21 17.5Z" fill="white"/>
</svg>
