<svg width="31" height="28" viewBox="0 0 31 28" fill="none" xmlns="http://www.w3.org/2000/svg">
<path d="M7.46053 28C7.10606 28 6.82755 27.7116 6.82755 27.3446V10.9326L5.05521 12.4794C5.02989 12.5056 5.00457 12.5056 5.00457 12.5318C4.75138 12.6891 4.47286 12.794 4.19435 12.794C3.68797 12.794 3.23222 12.5318 2.95371 12.1124L0.244556 7.89139C-0.21119 7.18352 -0.00863616 6.2397 0.674983 5.76779L8.19479 0.340824C8.24543 0.314607 8.29607 0.262172 8.37202 0.262172C8.39734 0.262172 9.08096 0.0262172 10.0431 0H10.828C11.0052 0 11.1825 0.0786517 11.2837 0.209738C11.4103 0.340824 11.461 0.524345 11.4356 0.707865C11.4356 0.734082 11.4356 0.786517 11.4103 0.812734C11.461 2.77903 13.4612 4.61423 15.588 4.61423C17.7148 4.61423 19.715 2.77903 19.7657 0.812734C19.7657 0.786517 19.7657 0.734082 19.7403 0.707865C19.715 0.524345 19.791 0.340824 19.8923 0.209738C19.9935 0.0786517 20.1708 0 20.348 0H21.8925C22.5001 0 22.9812 0.28839 23.0318 0.314607C23.0572 0.314607 23.0572 0.340824 23.0825 0.340824L30.3491 5.76779C31.0074 6.21348 31.21 7.18352 30.7542 7.89139L28.0451 11.8764C27.7919 12.2959 27.3108 12.5581 26.8044 12.5581C26.5006 12.5581 26.2221 12.4794 25.9942 12.2959C25.9689 12.2959 25.9689 12.2697 25.9436 12.2434L24.3231 10.8539L24.2725 27.3446C24.2725 27.7116 23.994 28 23.6395 28H7.46053Z" fill="white"/>
</svg>
