<svg width="43" height="49" viewBox="0 0 43 49" fill="none" xmlns="http://www.w3.org/2000/svg">
<path d="M1.63074 0C0.686627 0 0 0.489388 0 1.1623V47.8377C0 48.5106 0.686627 49 1.63074 49H41.3693C42.3134 49 43 48.5106 43 47.8377V1.1623C43 0.489388 42.3134 0 41.3693 0L1.63074 0ZM8.58283 6.11735H34.3313V36.7041H8.58283V6.11735ZM21.4571 39.7628C23.8603 39.7628 25.7485 41.1086 25.7485 42.8215C25.7485 44.5343 23.8603 45.8801 21.4571 45.8801C19.0539 45.8801 17.1657 44.5343 17.1657 42.8215C17.1657 41.1086 19.0539 39.7628 21.4571 39.7628Z" fill="white"/>
<path d="M19.9347 11V13.5337H17.3471C15.001 13.5337 13.0345 14.978 13.0345 16.7009V17.9678C13.0345 19.6907 14.5525 21.1096 16.7951 21.5403L25.6273 23.2126C26.1103 23.3139 26.8003 23.9474 26.8003 24.3274V25.5943C26.8003 25.949 26.4208 26.2277 25.9378 26.2277H17.3126C16.8986 26.2277 16.5881 26.1264 16.4501 26.0757V23.694H13V26.2277C13 27.0892 13.69 27.824 14.518 28.204C15.3116 28.6094 16.3121 28.7614 17.3126 28.7614H19.9002V31.2952H23.3502V28.7614H25.9378C28.3184 28.7614 30.2504 27.3426 30.2504 25.5943V24.3274C30.2504 22.6045 28.7324 21.1856 26.4898 20.7549L17.6576 19.0826C17.1746 18.9812 16.4846 18.3478 16.4846 17.9678V16.7009C16.4846 16.3462 16.8641 16.0675 17.3471 16.0675H25.9723C26.3518 16.0675 26.6968 16.1688 26.8348 16.2195V18.6012H30.2849V16.0675C30.2849 15.206 29.5949 14.4712 28.7669 14.0911C27.9734 13.6858 26.9728 13.5337 25.9723 13.5337H23.3847V11L19.9347 11Z" fill="white"/>
</svg>
