<svg width="15" height="10" viewBox="0 0 15 10" fill="none" xmlns="http://www.w3.org/2000/svg">
<path d="M9.32537 0.548289L9.32539 0.548303L14.4631 3.92856L9.32537 7.30917L9.32536 7.30918C9.24939 7.35917 9.12457 7.37444 9.01259 7.33588C8.97348 7.32242 8.94968 7.30675 8.9375 7.29667V5.35903V4.85352L8.43202 4.85906C7.28435 4.87164 6.28007 4.9353 5.44066 5.07993C4.60722 5.22352 3.89451 5.45358 3.36155 5.82761C2.80817 6.21598 2.46352 6.75059 2.37692 7.436C2.30026 8.04271 2.43028 8.73044 2.72302 9.4971C2.70712 9.49417 2.69399 9.48925 2.68376 9.48359L2.68376 9.48359C2.10088 9.16058 1.54542 8.6889 1.13996 8.14853C0.732736 7.60582 0.5 7.02625 0.5 6.48048C0.5 5.72902 0.703846 5.15804 1.05168 4.70959C1.40478 4.25433 1.93413 3.88986 2.64 3.60702C4.0672 3.03514 6.09416 2.8434 8.44186 2.82292L8.9375 2.8186V2.32294V0.560941C8.9497 0.550828 8.97353 0.535116 9.01266 0.521614C9.12451 0.483028 9.24921 0.498177 9.32537 0.548289ZM2.84283 9.47878C2.84287 9.4788 2.84235 9.47921 2.84118 9.47995C2.84221 9.47912 2.8428 9.47876 2.84283 9.47878Z" fill="black" stroke="white"/>
</svg>
