<svg width="25" height="28" viewBox="0 0 25 28" fill="none" xmlns="http://www.w3.org/2000/svg">
<path d="M24.864 22.0372C24.4473 23.7326 23.0932 24.6855 21.2768 25.0072C19.6818 25.2856 18.3537 25.3537 17.0777 24.3761C15.5217 23.1324 15.5022 21.072 16.9019 19.7727C18.0087 18.7703 19.5646 18.5661 21.9018 18.1763C22.2924 18.1082 22.631 18.0216 22.9174 17.7184C23.3341 17.273 23.2039 17.4648 23.2039 7.62062C23.2039 6.92763 22.8458 6.73582 22.0971 6.85957C21.5633 6.94619 10.0075 9.00041 10.0075 9.00041C9.3435 9.13653 9.13517 9.32215 9.13517 10.0337C9.13517 24.5555 9.20678 23.8873 8.97241 24.8525C8.69898 25.9786 7.96983 26.8263 7.00631 27.2965C5.91258 27.872 3.93346 28.1256 2.8788 27.94C0.0663564 27.4388 -0.923206 24.3513 0.984305 22.5817C2.09105 21.5794 3.64701 21.3752 5.9842 20.9854C6.37481 20.9173 6.71335 20.8307 6.9998 20.5275C7.65734 19.816 7.11698 4.65067 7.33833 3.80918C7.39042 3.48744 7.53364 3.21519 7.80056 3.01101C8.074 2.79445 8.56878 2.6707 8.67294 2.6707C21.9539 0.307116 23.575 0.00393346 23.8028 0.00393346C24.5515 -0.0455657 24.9812 0.375177 24.9812 1.09292C24.9942 22.4085 25.0528 21.2638 24.864 22.0372Z" fill="white"/>
</svg>
