<svg width="28" height="28" viewBox="0 0 28 28" fill="none" xmlns="http://www.w3.org/2000/svg">
<path d="M0 25.375C0 26.8242 1.34375 28 3 28H25C26.6562 28 28 26.8242 28 25.375V10.5H0V25.375ZM20 14.6562C20 14.2953 20.3375 14 20.75 14H23.25C23.6625 14 24 14.2953 24 14.6562V16.8438C24 17.2047 23.6625 17.5 23.25 17.5H20.75C20.3375 17.5 20 17.2047 20 16.8438V14.6562ZM20 21.6562C20 21.2953 20.3375 21 20.75 21H23.25C23.6625 21 24 21.2953 24 21.6562V23.8438C24 24.2047 23.6625 24.5 23.25 24.5H20.75C20.3375 24.5 20 24.2047 20 23.8438V21.6562ZM12 14.6562C12 14.2953 12.3375 14 12.75 14H15.25C15.6625 14 16 14.2953 16 14.6562V16.8438C16 17.2047 15.6625 17.5 15.25 17.5H12.75C12.3375 17.5 12 17.2047 12 16.8438V14.6562ZM12 21.6562C12 21.2953 12.3375 21 12.75 21H15.25C15.6625 21 16 21.2953 16 21.6562V23.8438C16 24.2047 15.6625 24.5 15.25 24.5H12.75C12.3375 24.5 12 24.2047 12 23.8438V21.6562ZM4 14.6562C4 14.2953 4.3375 14 4.75 14H7.25C7.6625 14 8 14.2953 8 14.6562V16.8438C8 17.2047 7.6625 17.5 7.25 17.5H4.75C4.3375 17.5 4 17.2047 4 16.8438V14.6562ZM4 21.6562C4 21.2953 4.3375 21 4.75 21H7.25C7.6625 21 8 21.2953 8 21.6562V23.8438C8 24.2047 7.6625 24.5 7.25 24.5H4.75C4.3375 24.5 4 24.2047 4 23.8438V21.6562ZM25 3.5H22V0.875C22 0.39375 21.55 0 21 0H19C18.45 0 18 0.39375 18 0.875V3.5H10V0.875C10 0.39375 9.55 0 9 0H7C6.45 0 6 0.39375 6 0.875V3.5H3C1.34375 3.5 0 4.67578 0 6.125V8.75H28V6.125C28 4.67578 26.6562 3.5 25 3.5Z" fill="white"/>
</svg>
