<svg width="18" height="20" viewBox="0 0 18 20" fill="none" xmlns="http://www.w3.org/2000/svg">
<path d="M15.75 6.66667C15.1287 6.66667 14.625 6.16299 14.625 5.54167V4.7619C14.625 2.13333 12.105 0 9 0C5.895 0 3.375 2.13333 3.375 4.7619V5.54167C3.375 6.16299 2.87132 6.66667 2.25 6.66667C1.0125 6.66667 0 7.52381 0 8.57143V18.0952C0 19.1429 1.0125 20 2.25 20H15.75C16.9875 20 18 19.1429 18 18.0952V8.57143C18 7.52381 16.9875 6.66667 15.75 6.66667ZM9 15.2381C7.7625 15.2381 6.75 14.381 6.75 13.3333C6.75 12.2857 7.7625 11.4286 9 11.4286C10.2375 11.4286 11.25 12.2857 11.25 13.3333C11.25 14.381 10.2375 15.2381 9 15.2381ZM12.4875 4.7619C12.4875 5.81388 11.6347 6.66667 10.5827 6.66667H7.41726C6.36529 6.66667 5.5125 5.81388 5.5125 4.7619C5.5125 3.13333 7.07625 1.80952 9 1.80952C10.9237 1.80952 12.4875 3.13333 12.4875 4.7619Z" fill="#948989"/>
</svg>
