<svg width="23" height="35" viewBox="0 0 23 35" fill="none" xmlns="http://www.w3.org/2000/svg">
<path d="M11.5 22.7382C17.8512 22.7382 23 17.6482 23 11.3691C23 5.09012 17.8512 0 11.5 0C5.14873 0 0 5.09012 0 11.3691C0 17.6482 5.14873 22.7382 11.5 22.7382Z" fill="white"/>
<path d="M17.957 23.8036C18.5192 23.5062 19.1666 23.9435 19.1666 24.5907V33.0738C19.1666 34.6479 18.0933 35.4176 16.7644 34.7704L12.1984 32.549C11.8066 32.3741 11.1933 32.3741 10.8014 32.549L6.23547 34.7704C4.90658 35.4001 3.83325 34.6305 3.83325 33.0563L3.86733 24.5907C3.86733 23.9435 4.53177 23.5237 5.07695 23.8036C7.00214 24.8006 9.18288 25.3603 11.4999 25.3603C13.817 25.3603 16.0147 24.8006 17.957 23.8036Z" fill="white"/>
</svg>
