<svg width="43" height="49" viewBox="0 0 43 49" fill="none" xmlns="http://www.w3.org/2000/svg">
<path d="M1.63074 0C0.686627 0 0 0.489388 0 1.1623V47.8377C0 48.5106 0.686627 49 1.63074 49H41.3693C42.3134 49 43 48.5106 43 47.8377V1.1623C43 0.489388 42.3134 0 41.3693 0L1.63074 0ZM8.58283 6.11735H34.3313V36.7041H8.58283V6.11735ZM21.4571 39.7628C23.8603 39.7628 25.7485 41.1086 25.7485 42.8215C25.7485 44.5343 23.8603 45.8801 21.4571 45.8801C19.0539 45.8801 17.1657 44.5343 17.1657 42.8215C17.1657 41.1086 19.0539 39.7628 21.4571 39.7628Z" fill="white"/>
</svg>
