<svg width="32" height="32" viewBox="0 0 32 32" fill="none" xmlns="http://www.w3.org/2000/svg">
<path d="M4.15385 5.23077C3.5826 5.23077 3.03477 5.4577 2.63085 5.86161C2.22692 6.26555 2 6.81338 2 7.38462V27.8462C2 28.4174 2.22692 28.9653 2.63085 29.3691C3.03477 29.773 3.5826 30 4.15385 30H27.8462C28.4174 30 28.9653 29.773 29.3691 29.3691C29.773 28.9653 30 28.4174 30 27.8462V7.38462C30 6.81338 29.773 6.26555 29.3691 5.86161C28.9653 5.4577 28.4174 5.23077 27.8462 5.23077H23.5385" stroke="white" stroke-width="2.29186" stroke-linecap="round" stroke-linejoin="round"/>
<path d="M8.46155 2V8.46154" stroke="white" stroke-width="2.29186" stroke-linecap="round" stroke-linejoin="round"/>
<path d="M23.5386 2V8.46154" stroke="white" stroke-width="2.29186" stroke-linecap="round" stroke-linejoin="round"/>
<path d="M8.46155 5.23077H19.2308" stroke="white" stroke-width="2.29186" stroke-linecap="round" stroke-linejoin="round"/>
<path d="M21.3847 18.1538H10.6155" stroke="white" stroke-width="2.29186" stroke-linecap="round" stroke-linejoin="round"/>
<path d="M16 12.7692V23.5385" stroke="white" stroke-width="2.29186" stroke-linecap="round" stroke-linejoin="round"/>
</svg>
