<svg width="27" height="26" viewBox="0 0 27 26" fill="none" xmlns="http://www.w3.org/2000/svg">
<path d="M13.5 0C10.83 0 8.21987 0.762437 5.99981 2.19089C3.77974 3.61935 2.04942 5.64967 1.02763 8.02511C0.00584934 10.4006 -0.261496 13.0144 0.259405 15.5362C0.780305 18.0579 2.06606 20.3743 3.95406 22.1924C5.84207 24.0105 8.24754 25.2486 10.8663 25.7502C13.485 26.2518 16.1994 25.9944 18.6662 25.0104C21.133 24.0265 23.2414 22.3602 24.7248 20.2224C26.2082 18.0846 27 15.5712 27 13C26.9959 9.55341 25.5722 6.24912 23.0414 3.81201C20.5105 1.3749 17.0792 0.00398351 13.5 0ZM13.4999 6C13.808 6 14.1091 6.08797 14.3653 6.25279C14.6214 6.41762 14.8211 6.65188 14.939 6.92597C15.0569 7.20006 15.0877 7.50166 15.0276 7.79263C14.9675 8.08361 14.8192 8.35088 14.6013 8.56066C14.3835 8.77044 14.1059 8.9133 13.8038 8.97118C13.5016 9.02905 13.1884 8.99935 12.9038 8.88582C12.6191 8.77229 12.3759 8.58003 12.2047 8.33335C12.0335 8.08668 11.9422 7.79667 11.9422 7.5C11.9422 7.30302 11.9825 7.10796 12.0608 6.92597C12.139 6.74398 12.2538 6.57863 12.3984 6.43934C12.5431 6.30005 12.7148 6.18956 12.9038 6.11418C13.0928 6.0388 13.2953 6 13.4999 6ZM14.5385 20H13.5C13.3636 20.0001 13.2285 19.9743 13.1025 19.924C12.9765 19.8738 12.862 19.8001 12.7655 19.7073C12.6691 19.6144 12.5926 19.5041 12.5404 19.3828C12.4883 19.2614 12.4615 19.1313 12.4615 19V13C12.1861 13 11.922 12.8946 11.7272 12.7071C11.5325 12.5196 11.4231 12.2652 11.4231 12C11.4231 11.7348 11.5325 11.4804 11.7272 11.2929C11.922 11.1054 12.1861 11 12.4615 11H13.5C13.6364 10.9999 13.7715 11.0257 13.8975 11.076C14.0235 11.1262 14.138 11.1998 14.2345 11.2927C14.3309 11.3856 14.4074 11.4959 14.4596 11.6172C14.5117 11.7386 14.5385 11.8687 14.5385 12V18C14.8139 18 15.078 18.1054 15.2728 18.2929C15.4675 18.4804 15.5769 18.7348 15.5769 19C15.5769 19.2652 15.4675 19.5196 15.2728 19.7071C15.078 19.8946 14.8139 20 14.5385 20Z" fill="white"/>
</svg>
