<svg width="28" height="28" viewBox="0 0 28 28" fill="none" xmlns="http://www.w3.org/2000/svg">
<path d="M26.1049 1.8952C23.8859 -0.323795 20.3943 -0.619195 17.9788 1.14107L17.3941 0.556338L16.7501 1.19987L16.3165 1.6334L15.7733 2.17707L16.3436 2.74687C15.4014 3.99334 15.043 5.55574 15.2418 7.08594L14.9599 7.6772L13.7569 9.1654L1.94553 23.7679L1.5568 24.1566L2.163 24.7628L0 27.5129L0.4872 28.0001L3.23867 25.8371L3.8444 26.4428L4.23267 26.0545L18.8347 14.2432L20.3224 13.0411L20.9151 12.7592C22.4448 12.9571 24.0067 12.5991 25.2527 11.6579L25.8235 12.2286L26.3671 11.6849L26.8011 11.2509L27.4447 10.6074L26.8595 10.0222C28.6193 7.60627 28.3234 4.11374 26.1049 1.8952ZM4.4044 24.9765C4.35913 25.0218 4.28727 25.0218 4.242 24.9765L3.02307 23.7581C2.9778 23.7137 2.97873 23.6409 3.02307 23.5961C3.06787 23.5513 3.1402 23.5513 3.185 23.5961L4.4044 24.8146C4.4492 24.8599 4.44873 24.9322 4.4044 24.9765ZM5.70267 23.4659C5.37973 23.7884 4.8566 23.7884 4.53413 23.4659C4.42447 23.3567 4.35493 23.2228 4.31993 23.0833L5.91687 23.0823C5.88187 23.2228 5.81187 23.3567 5.70267 23.4659ZM4.3204 22.6815C4.3554 22.5415 4.4254 22.4085 4.53413 22.2988C4.85707 21.9759 5.3802 21.9759 5.70267 22.2988C5.81187 22.4085 5.88187 22.5419 5.91687 22.6824L4.3204 22.6815ZM6.874 21.5862C6.74753 21.7127 6.54173 21.7127 6.4148 21.5857C6.28833 21.4588 6.28833 21.253 6.4148 21.127C6.54173 21.0001 6.74753 20.9996 6.87447 21.1265C7.0014 21.2525 7.0014 21.4588 6.874 21.5862ZM10.7343 18.8889L9.1112 17.2653L12.4339 13.9431L14.0574 15.5667L10.7343 18.8889ZM14.6818 14.1452C14.2249 14.1447 13.8553 13.7756 13.8558 13.3187C13.8558 13.1638 13.9011 13.0196 13.9757 12.8959L15.1041 14.0253C14.9809 14.0999 14.8372 14.1457 14.6818 14.1452ZM15.3883 13.7411L14.2595 12.6122C14.3836 12.538 14.5264 12.4927 14.6813 12.4927C15.1382 12.4927 15.5078 12.8623 15.5078 13.3187C15.5078 13.4737 15.4625 13.6174 15.3883 13.7411ZM18.8678 13.6277L14.3724 9.13274L14.9963 8.3618L19.6383 13.0051L18.8678 13.6277ZM21.5236 11.8931L16.1051 6.47507C16.0655 5.43254 16.3287 4.39794 16.9115 3.52434L24.4757 11.0885C23.6017 11.6719 22.5666 11.9327 21.5236 11.8931ZM25.7185 11.0358L16.9652 2.28207L17.3987 1.84854L26.1525 10.6023L25.7185 11.0358ZM26.2029 9.36514L18.6354 1.79767C20.6855 0.407005 23.5975 0.684672 25.4567 2.54387C27.3154 4.4026 27.5935 7.31554 26.2029 9.36514Z" fill="white"/>
<path d="M25.5268 16.6909C25.2281 15.0561 23.6914 14.7425 23.6914 14.7425L20.8144 20.0574C20.7285 19.4419 20.2446 18.7923 19.4998 18.3886C18.4307 17.8095 17.2281 17.9602 16.8151 18.7237C16.4016 19.4876 16.9331 20.5754 18.0027 21.155C19.0728 21.7332 20.2745 21.5834 20.6875 20.8195L22.9835 16.5784C23.2266 16.5747 23.5887 16.7198 24.0862 17.2896C25.1283 18.4843 26.5432 18.6191 26.5432 18.6191C26.5432 18.6191 25.7858 18.1114 25.5268 16.6909Z" fill="white"/>
<path d="M5.11235 12.5063C6.88802 12.6491 8.40935 11.7358 8.51108 10.4674L9.07435 3.42494C9.39681 3.27608 9.96801 3.25554 10.9732 3.72594C13.0765 4.70734 15.0519 4.05214 15.0519 4.05214C15.0519 4.05214 13.7354 3.81928 12.5477 2.07021C11.1799 0.0546767 8.93481 0.54421 8.93481 0.54421L8.22828 9.37167C7.74901 8.59654 6.71628 8.01227 5.47868 7.91334C3.70348 7.77147 2.18215 8.68474 2.08088 9.95361C1.97962 11.2215 3.33575 12.3649 5.11235 12.5063Z" fill="white"/>
<path d="M10.7651 18.0467L9.95537 17.2369L10.1177 17.0746L10.9275 17.8843L10.7651 18.0467Z" fill="white"/>
<path d="M11.0642 17.7457L10.2543 16.9353L10.4167 16.773L11.2266 17.5833L11.0642 17.7457Z" fill="white"/>
<path d="M11.3646 17.4462L10.5542 16.6357L10.7165 16.4734L11.527 17.2838L11.3646 17.4462Z" fill="white"/>
<path d="M11.8287 16.983L11.6669 17.1452L10.8554 16.3359L11.0172 16.1737L11.8287 16.983Z" fill="white"/>
<path d="M9.61328 17.2187L10.7813 18.3863L13.5557 15.6124L12.3876 14.4443L9.61328 17.2187ZM10.7813 18.2243L9.77615 17.2191L11.0011 15.9941L12.0059 16.9993L10.7813 18.2243Z" fill="white"/>
</svg>
