<svg width="30" height="39" viewBox="0 0 30 39" fill="none" xmlns="http://www.w3.org/2000/svg">
<path d="M15 27.8743V34.076C15 36.3595 12.4929 38.2105 9.4 38.2105H6.6C3.5072 38.2105 1 36.3595 1 34.076V32.0088C1 29.7253 3.5072 27.8743 6.6 27.8743H15ZM15 27.8743V11.3363V27.8743ZM15 11.3363V3.06725L29 1V9.26901L15 11.3363Z" fill="white"/>
<path d="M15 27.8743V34.076C15 36.3595 12.4929 38.2105 9.4 38.2105H6.6C3.5072 38.2105 1 36.3595 1 34.076V32.0088C1 29.7253 3.5072 27.8743 6.6 27.8743H15ZM15 27.8743V11.3363M15 11.3363V3.06725L29 1V9.26901L15 11.3363Z" stroke="black" stroke-linecap="round" stroke-linejoin="round"/>
</svg>
