<svg width="154" height="40" viewBox="0 0 154 40" fill="none" xmlns="http://www.w3.org/2000/svg">
<path d="M77 0C65.9516 0 57 8.95161 57 20C57 31.0484 65.9516 40 77 40C88.0484 40 97 31.0484 97 20C97 8.95161 88.0484 0 77 0ZM86.3306 21.9355L72.1371 30.0806C70.8629 30.7903 69.2581 29.879 69.2581 28.3871V11.6129C69.2581 10.129 70.8548 9.20968 72.1371 9.91935L86.3306 18.5484C87.6532 19.2903 87.6532 21.2016 86.3306 21.9355Z" fill="#C9C6C6"/>
<path d="M0.560303 21.5786L9.9353 29.3911C10.9412 30.231 12.4988 29.5279 12.4988 28.19V12.565C12.4988 11.2271 10.9412 10.5239 9.9353 11.3638L0.560303 19.1763C-0.186768 19.8013 -0.186768 20.9536 0.560303 21.5786ZM13.0603 21.5786L22.4353 29.3911C23.4412 30.231 24.9988 29.5279 24.9988 28.19V12.565C24.9988 11.2271 23.4412 10.5239 22.4353 11.3638L13.0603 19.1763C12.3132 19.8013 12.3132 20.9536 13.0603 21.5786Z" fill="#C9C6C6"/>
<path d="M153.438 19.1741L144.063 11.3616C143.058 10.5267 141.5 11.2249 141.5 12.5628V28.1878C141.5 29.5257 143.058 30.2288 144.063 29.389L153.438 21.5765C154.186 20.9515 154.186 19.7991 153.438 19.1741ZM140.938 19.1741L131.563 11.3616C130.558 10.5267 129 11.2249 129 12.5628V28.1878C129 29.5257 130.558 30.2288 131.563 29.389L140.938 21.5765C141.686 20.9515 141.686 19.7991 140.938 19.1741Z" fill="#C9C6C6"/>
</svg>
