<svg width="321" height="22" viewBox="0 0 321 22" fill="none" xmlns="http://www.w3.org/2000/svg">
<line x1="0.999268" y1="3.9848" x2="320.999" y2="3.9848" stroke="#C9C6C6"/>
<circle cx="3.5" cy="3.5" r="3.5" fill="white"/>
<path d="M2.8125 20.0895C2.33097 20.0895 1.92081 19.9585 1.58203 19.6964C1.24325 19.4322 0.984375 19.0497 0.805398 18.549C0.62642 18.0462 0.536932 17.4389 0.536932 16.7273C0.536932 16.0199 0.62642 15.4158 0.805398 14.9151C0.986506 14.4123 1.24645 14.0288 1.58523 13.7646C1.92614 13.4982 2.33523 13.3651 2.8125 13.3651C3.28977 13.3651 3.6978 13.4982 4.03658 13.7646C4.37749 14.0288 4.63743 14.4123 4.81641 14.9151C4.99751 15.4158 5.08807 16.0199 5.08807 16.7273C5.08807 17.4389 4.99858 18.0462 4.8196 18.549C4.64062 19.0497 4.38175 19.4322 4.04297 19.6964C3.70419 19.9585 3.29403 20.0895 2.8125 20.0895ZM2.8125 19.3864C3.28977 19.3864 3.66051 19.1562 3.92472 18.696C4.18892 18.2358 4.32102 17.5795 4.32102 16.7273C4.32102 16.1605 4.2603 15.6779 4.13885 15.2795C4.01953 14.881 3.84695 14.5774 3.62109 14.3686C3.39737 14.1598 3.12784 14.0554 2.8125 14.0554C2.33949 14.0554 1.96982 14.2887 1.70348 14.7553C1.43714 15.2198 1.30398 15.8771 1.30398 16.7273C1.30398 17.294 1.36364 17.7756 1.48295 18.1719C1.60227 18.5682 1.77379 18.8697 1.99751 19.0763C2.22337 19.283 2.49503 19.3864 2.8125 19.3864ZM8.4375 20.0895C7.95597 20.0895 7.54581 19.9585 7.20703 19.6964C6.86825 19.4322 6.60938 19.0497 6.4304 18.549C6.25142 18.0462 6.16193 17.4389 6.16193 16.7273C6.16193 16.0199 6.25142 15.4158 6.4304 14.9151C6.61151 14.4123 6.87145 14.0288 7.21023 13.7646C7.55114 13.4982 7.96023 13.3651 8.4375 13.3651C8.91477 13.3651 9.3228 13.4982 9.66158 13.7646C10.0025 14.0288 10.2624 14.4123 10.4414 14.9151C10.6225 15.4158 10.7131 16.0199 10.7131 16.7273C10.7131 17.4389 10.6236 18.0462 10.4446 18.549C10.2656 19.0497 10.0067 19.4322 9.66797 19.6964C9.32919 19.9585 8.91903 20.0895 8.4375 20.0895ZM8.4375 19.3864C8.91477 19.3864 9.28551 19.1562 9.54972 18.696C9.81392 18.2358 9.94602 17.5795 9.94602 16.7273C9.94602 16.1605 9.8853 15.6779 9.76385 15.2795C9.64453 14.881 9.47195 14.5774 9.24609 14.3686C9.02237 14.1598 8.75284 14.0554 8.4375 14.0554C7.96449 14.0554 7.59482 14.2887 7.32848 14.7553C7.06214 15.2198 6.92898 15.8771 6.92898 16.7273C6.92898 17.294 6.98864 17.7756 7.10795 18.1719C7.22727 18.5682 7.39879 18.8697 7.62251 19.0763C7.84837 19.283 8.12003 19.3864 8.4375 19.3864ZM12.4901 19.1626C12.3324 19.1626 12.1971 19.1062 12.0842 18.9933C11.9712 18.8803 11.9148 18.745 11.9148 18.5874C11.9148 18.4297 11.9712 18.2944 12.0842 18.1815C12.1971 18.0685 12.3324 18.0121 12.4901 18.0121C12.6477 18.0121 12.783 18.0685 12.896 18.1815C13.0089 18.2944 13.0653 18.4297 13.0653 18.5874C13.0653 18.6918 13.0387 18.7876 12.9854 18.875C12.9343 18.9624 12.8651 19.0327 12.7777 19.0859C12.6925 19.1371 12.5966 19.1626 12.4901 19.1626ZM12.4901 15.8516C12.3324 15.8516 12.1971 15.7951 12.0842 15.6822C11.9712 15.5692 11.9148 15.4339 11.9148 15.2763C11.9148 15.1186 11.9712 14.9833 12.0842 14.8704C12.1971 14.7575 12.3324 14.701 12.4901 14.701C12.6477 14.701 12.783 14.7575 12.896 14.8704C13.0089 14.9833 13.0653 15.1186 13.0653 15.2763C13.0653 15.3807 13.0387 15.4766 12.9854 15.5639C12.9343 15.6513 12.8651 15.7216 12.7777 15.7749C12.6925 15.826 12.5966 15.8516 12.4901 15.8516ZM16.541 20.0895C16.0595 20.0895 15.6493 19.9585 15.3105 19.6964C14.9718 19.4322 14.7129 19.0497 14.5339 18.549C14.3549 18.0462 14.2654 17.4389 14.2654 16.7273C14.2654 16.0199 14.3549 15.4158 14.5339 14.9151C14.715 14.4123 14.975 14.0288 15.3137 13.7646C15.6547 13.4982 16.0637 13.3651 16.541 13.3651C17.0183 13.3651 17.4263 13.4982 17.7651 13.7646C18.106 14.0288 18.3659 14.4123 18.5449 14.9151C18.726 15.4158 18.8166 16.0199 18.8166 16.7273C18.8166 17.4389 18.7271 18.0462 18.5481 18.549C18.3691 19.0497 18.1103 19.4322 17.7715 19.6964C17.4327 19.9585 17.0225 20.0895 16.541 20.0895ZM16.541 19.3864C17.0183 19.3864 17.389 19.1562 17.6532 18.696C17.9174 18.2358 18.0495 17.5795 18.0495 16.7273C18.0495 16.1605 17.9888 15.6779 17.8674 15.2795C17.748 14.881 17.5755 14.5774 17.3496 14.3686C17.1259 14.1598 16.8564 14.0554 16.541 14.0554C16.068 14.0554 15.6983 14.2887 15.432 14.7553C15.1657 15.2198 15.0325 15.8771 15.0325 16.7273C15.0325 17.294 15.0922 17.7756 15.2115 18.1719C15.3308 18.5682 15.5023 18.8697 15.726 19.0763C15.9519 19.283 16.2235 19.3864 16.541 19.3864ZM22.166 20.0895C21.6845 20.0895 21.2743 19.9585 20.9355 19.6964C20.5968 19.4322 20.3379 19.0497 20.1589 18.549C19.9799 18.0462 19.8904 17.4389 19.8904 16.7273C19.8904 16.0199 19.9799 15.4158 20.1589 14.9151C20.34 14.4123 20.6 14.0288 20.9387 13.7646C21.2797 13.4982 21.6887 13.3651 22.166 13.3651C22.6433 13.3651 23.0513 13.4982 23.3901 13.7646C23.731 14.0288 23.9909 14.4123 24.1699 14.9151C24.351 15.4158 24.4416 16.0199 24.4416 16.7273C24.4416 17.4389 24.3521 18.0462 24.1731 18.549C23.9941 19.0497 23.7353 19.4322 23.3965 19.6964C23.0577 19.9585 22.6475 20.0895 22.166 20.0895ZM22.166 19.3864C22.6433 19.3864 23.014 19.1562 23.2782 18.696C23.5424 18.2358 23.6745 17.5795 23.6745 16.7273C23.6745 16.1605 23.6138 15.6779 23.4924 15.2795C23.373 14.881 23.2005 14.5774 22.9746 14.3686C22.7509 14.1598 22.4814 14.0554 22.166 14.0554C21.693 14.0554 21.3233 14.2887 21.057 14.7553C20.7907 15.2198 20.6575 15.8771 20.6575 16.7273C20.6575 17.294 20.7172 17.7756 20.8365 18.1719C20.9558 18.5682 21.1273 18.8697 21.351 19.0763C21.5769 19.283 21.8485 19.3864 22.166 19.3864Z" fill="white"/>
</svg>
